<svg xmlns="http://www.w3.org/2000/svg" viewBox="0 0 105.57 117.06"><defs><style>.cls-1,.cls-3,.cls-4{fill:none;stroke-linecap:round;stroke-width:1.5px;}.cls-1,.cls-4{stroke:#c7c7c7;stroke-linejoin:round;}.cls-1{stroke-dasharray:3;}.cls-2{fill:#d3eae4;}.cls-3{stroke:#6a7070;stroke-miterlimit:10;}.cls-5{fill:#76d5d4;}</style></defs><title>Drag illustration</title><g id="Layer_2" data-name="Layer 2"><g id="Layer_1-2" data-name="Layer 1"><path class="cls-1" d="M36.68,27.4V2.2A1.45,1.45,0,0,1,38.13.75h65.24a1.45,1.45,0,0,1,1.45,1.45V67.44a1.45,1.45,0,0,1-1.45,1.45H68.63"/><rect class="cls-2" y="32.69" width="64.66" height="64.66" rx="1.58" ry="1.58"/><path class="cls-3" d="M45.45,95.31H3.82a1.38,1.38,0,0,1-1.37-1.37V32a1.38,1.38,0,0,1,1.37-1.38H65.73A1.38,1.38,0,0,1,67.11,32v42.7"/><line class="cls-4" x1="36.06" y1="116.31" x2="47.62" y2="104.79"/><line class="cls-4" x1="35.05" y1="110.16" x2="41.48" y2="103.75"/><path class="cls-5" d="M73.2,108.62l-7.31-7.45a1.31,1.31,0,0,0-1.85,0L59.24,106a1.3,1.3,0,0,1-2.15-.52L49.14,81a1.29,1.29,0,0,1,1.61-1.64l24.81,7.56A1.29,1.29,0,0,1,76.1,89L71,94.21A1.28,1.28,0,0,0,71,96l7.4,7.41a1.29,1.29,0,0,1,0,1.83L75,108.63A1.3,1.3,0,0,1,73.2,108.62Z"/><path class="cls-3" d="M74.67,107.84l-7.32-7.45a1.29,1.29,0,0,0-1.84,0l-4.81,4.84a1.29,1.29,0,0,1-2.15-.51L50.6,80.16a1.3,1.3,0,0,1,1.61-1.64L77,86.09a1.3,1.3,0,0,1,.55,2.15l-5.12,5.18a1.3,1.3,0,0,0,0,1.83l7.41,7.4a1.3,1.3,0,0,1,0,1.83l-3.36,3.36A1.3,1.3,0,0,1,74.67,107.84Z"/></g></g></svg>